{
    "asset": {
        "generator": "COLLADA2GLTF",
        "version": "2.0"
    },
    "scenes": [
        {
            "nodes": [
                0
            ]
        }
    ],
    "scene": 0,
    "nodes": [
        {
            "children": [
                3,
                2,
                1
            ],
            "name": "Y_UP"
        },
        {
            "mesh": 0,
            "matrix": [
                4.739952087402344,
                0.0,
                0.0,
                0.0,
                0.0,
                2.793060064315796,
                0.0,
                0.0,
                0.0,
                0.0,
                4.897950172424316,
                0.0,
                -0.0004495699831750244,
                -0.00451334984973073,
                -0.000021540001398534519,
                1.0
            ],
            "name": "pCone1"
        },
        {
            "mesh": 1,
            "matrix": [
                0.5793269872665405,
                0.0,
                0.0,
                0.0,
                0.0,
                -9.1449556350708,
                7.949588775634766,
                0.0,
                0.0,
                -1.4685930013656617,
                -1.6894229650497437,
                0.0,
                0.010604689829051497,
                0.04236289858818054,
                -0.00047614998766221106,
                1.0
            ],
            "name": "pasted__pCube1"
        },
        {
            "mesh": 2,
            "matrix": [
                0.5793269872665405,
                0.0,
                0.0,
                0.0,
                0.0,
                9.1449556350708,
                7.949588775634766,
                0.0,
                0.0,
                -1.4685930013656617,
                1.6894229650497437,
                0.0,
                0.004117459990084171,
                0.042486436665058139,
                0.0004503699892666191,
                1.0
            ],
            "name": "pCube1"
        }
    ],
    "meshes": [
        {
            "primitives": [
                {
                    "attributes": {
                        "NORMAL": 1,
                        "POSITION": 2
                    },
                    "indices": 0,
                    "mode": 4,
                    "material": 0
                }
            ],
            "name": "pCone1Mesh"
        },
        {
            "primitives": [
                {
                    "attributes": {
                        "NORMAL": 4,
                        "POSITION": 5
                    },
                    "indices": 3,
                    "mode": 4,
                    "material": 1
                }
            ],
            "name": "pasted__pCube1Mesh"
        },
        {
            "primitives": [
                {
                    "attributes": {
                        "NORMAL": 7,
                        "POSITION": 8
                    },
                    "indices": 6,
                    "mode": 4,
                    "material": 2
                }
            ],
            "name": "pCube1Mesh"
        }
    ],
    "accessors": [
        {
            "bufferView": 0,
            "byteOffset": 0,
            "componentType": 5123,
            "count": 114,
            "max": [
                41
            ],
            "min": [
                0
            ],
            "type": "SCALAR"
        },
        {
            "bufferView": 1,
            "byteOffset": 0,
            "componentType": 5126,
            "count": 42,
            "max": [
                0.934436023235321,
                1.0,
                0.8944270014762878
            ],
            "min": [
                -0.934436023235321,
                -1.0,
                -0.8944270014762878
            ],
            "type": "VEC3"
        },
        {
            "bufferView": 1,
            "byteOffset": 504,
            "componentType": 5126,
            "count": 42,
            "max": [
                0.009999999776482582,
                0.009999999776482582,
                0.009999999776482582
            ],
            "min": [
                -0.009999999776482582,
                -0.01623857021331787,
                -0.009999999776482582
            ],
            "type": "VEC3"
        },
        {
            "bufferView": 0,
            "byteOffset": 228,
            "componentType": 5123,
            "count": 36,
            "max": [
                23
            ],
            "min": [
                0
            ],
            "type": "SCALAR"
        },
        {
            "bufferView": 1,
            "byteOffset": 1008,
            "componentType": 5126,
            "count": 24,
            "max": [
                1.0,
                1.0,
                1.0
            ],
            "min": [
                -1.0,
                -1.0,
                -1.0
            ],
            "type": "VEC3"
        },
        {
            "bufferView": 1,
            "byteOffset": 1296,
            "componentType": 5126,
            "count": 24,
            "max": [
                0.004999999888241291,
                0.004999999888241291,
                0.004999999888241291
            ],
            "min": [
                -0.004999999888241291,
                -0.004999999888241291,
                -0.004999999888241291
            ],
            "type": "VEC3"
        },
        {
            "bufferView": 0,
            "byteOffset": 300,
            "componentType": 5123,
            "count": 36,
            "max": [
                23
            ],
            "min": [
                0
            ],
            "type": "SCALAR"
        },
        {
            "bufferView": 1,
            "byteOffset": 1584,
            "componentType": 5126,
            "count": 24,
            "max": [
                1.0,
                1.0,
                1.0
            ],
            "min": [
                -1.0,
                -1.0,
                -1.0
            ],
            "type": "VEC3"
        },
        {
            "bufferView": 1,
            "byteOffset": 1872,
            "componentType": 5126,
            "count": 24,
            "max": [
                0.004999999888241291,
                0.004999999888241291,
                0.004999999888241291
            ],
            "min": [
                -0.004999999888241291,
                -0.004999999888241291,
                -0.004999999888241291
            ],
            "type": "VEC3"
        }
    ],
    "materials": [
        {
            "pbrMetallicRoughness": {
                "baseColorFactor": [
                    0.5,
                    0.5,
                    0.5,
                    0.0
                ],
                "metallicFactor": 0.0
            },
            "emissiveFactor": [
                0.0,
                0.0,
                0.0
            ],
            "alphaMode": "BLEND",
            "name": "Default_Material"
        },
        {
            "pbrMetallicRoughness": {
                "baseColorFactor": [
                    0.5,
                    0.5,
                    0.5,
                    0.0
                ],
                "metallicFactor": 0.0
            },
            "emissiveFactor": [
                0.0,
                0.0,
                0.0
            ],
            "alphaMode": "BLEND",
            "name": "Default_Material"
        },
        {
            "pbrMetallicRoughness": {
                "baseColorFactor": [
                    0.5,
                    0.5,
                    0.5,
                    0.0
                ],
                "metallicFactor": 0.0
            },
            "emissiveFactor": [
                0.0,
                0.0,
                0.0
            ],
            "alphaMode": "BLEND",
            "name": "Default_Material"
        }
    ],
    "bufferViews": [
        {
            "buffer": 0,
            "byteOffset": 2160,
            "byteLength": 372,
            "target": 34963
        },
        {
            "buffer": 0,
            "byteOffset": 0,
            "byteLength": 2160,
            "byteStride": 12,
            "target": 34962
        }
    ],
    "buffers": [
        {
            "byteLength": 2532,
            "uri": "data:application/octet-stream;base64,"
        }
    ]
}
