{
    "asset": {
        "generator": "COLLADA2GLTF",
        "version": "2.0"
    },
    "scenes": [
        {
            "nodes": [
                0
            ]
        }
    ],
    "scene": 0,
    "nodes": [
        {
            "children": [
                1
            ],
            "name": "Y_UP"
        },
        {
            "mesh": 0,
            "name": "pasted__pCube2"
        }
    ],
    "meshes": [
        {
            "primitives": [
                {
                    "attributes": {
                        "NORMAL": 1,
                        "POSITION": 2
                    },
                    "indices": 0,
                    "mode": 4,
                    "material": 0
                }
            ],
            "name": "pasted__pCube2Mesh"
        }
    ],
    "accessors": [
        {
            "bufferView": 0,
            "byteOffset": 0,
            "componentType": 5123,
            "count": 186,
            "max": [
                89
            ],
            "min": [
                0
            ],
            "type": "SCALAR"
        },
        {
            "bufferView": 1,
            "byteOffset": 0,
            "componentType": 5126,
            "count": 90,
            "max": [
                1.0,
                1.0,
                0.7547100186347961
            ],
            "min": [
                -1.0,
                -1.0,
                -0.7547100186347961
            ],
            "type": "VEC3"
        },
        {
            "bufferView": 1,
            "byteOffset": 1080,
            "componentType": 5126,
            "count": 90,
            "max": [
                0.017777420580387117,
                0.040547508746385577,
                0.04732604697346687
            ],
            "min": [
                -0.0022225799039006239,
                0.011845630593597888,
                0.02606385014951229
            ],
            "type": "VEC3"
        }
    ],
    "materials": [
        {
            "pbrMetallicRoughness": {
                "baseColorFactor": [
                    0.5,
                    0.5,
                    0.5,
                    0.0
                ],
                "metallicFactor": 0.0
            },
            "emissiveFactor": [
                0.0,
                0.0,
                0.0
            ],
            "alphaMode": "BLEND",
            "name": "Default_Material"
        }
    ],
    "bufferViews": [
        {
            "buffer": 0,
            "byteOffset": 2160,
            "byteLength": 372,
            "target": 34963
        },
        {
            "buffer": 0,
            "byteOffset": 0,
            "byteLength": 2160,
            "byteStride": 12,
            "target": 34962
        }
    ],
    "buffers": [
        {
            "byteLength": 2532,
            "uri": "data:application/octet-stream;base64,"
        }
    ]
}
