{
    "asset": {
        "generator": "COLLADA2GLTF",
        "version": "2.0"
    },
    "scenes": [
        {
            "nodes": [
                0
            ]
        }
    ],
    "scene": 0,
    "nodes": [
        {
            "children": [
                3,
                2,
                1
            ],
            "name": "Y_UP"
        },
        {
            "mesh": 0,
            "matrix": [
                1.0,
                0.0,
                0.0,
                0.0,
                0.0,
                0.5892589688301086,
                0.0,
                0.0,
                0.0,
                0.0,
                1.0333329439163209,
                0.0,
                0.007777419406920672,
                0.02141436003148556,
                0.03668629750609398,
                1.0
            ],
            "name": "pCone1"
        },
        {
            "mesh": 1,
            "matrix": [
                0.12222199887037276,
                0.0,
                0.0,
                0.0,
                0.0,
                -1.9293349981307984,
                1.6771459579467774,
                0.0,
                0.0,
                -0.30983299016952517,
                -0.3564220070838928,
                0.0,
                0.011405179277062416,
                0.02922813780605793,
                0.036231689155101779,
                1.0
            ],
            "name": "pasted__pCube1"
        },
        {
            "mesh": 2,
            "matrix": [
                0.12222199887037276,
                0.0,
                0.0,
                0.0,
                0.0,
                1.9293349981307984,
                1.6771459579467774,
                0.0,
                0.0,
                -0.30983299016952517,
                0.3564220070838928,
                0.0,
                0.009938339702785017,
                0.029351679608225824,
                0.037158217281103137,
                1.0
            ],
            "name": "pCube1"
        }
    ],
    "meshes": [
        {
            "primitives": [
                {
                    "attributes": {
                        "NORMAL": 1,
                        "POSITION": 2
                    },
                    "indices": 0,
                    "mode": 4,
                    "material": 0
                }
            ],
            "name": "pCone1Mesh"
        },
        {
            "primitives": [
                {
                    "attributes": {
                        "NORMAL": 4,
                        "POSITION": 5
                    },
                    "indices": 3,
                    "mode": 4,
                    "material": 1
                }
            ],
            "name": "pasted__pCube1Mesh"
        },
        {
            "primitives": [
                {
                    "attributes": {
                        "NORMAL": 7,
                        "POSITION": 8
                    },
                    "indices": 6,
                    "mode": 4,
                    "material": 2
                }
            ],
            "name": "pCube1Mesh"
        }
    ],
    "accessors": [
        {
            "bufferView": 0,
            "byteOffset": 0,
            "componentType": 5123,
            "count": 114,
            "max": [
                41
            ],
            "min": [
                0
            ],
            "type": "SCALAR"
        },
        {
            "bufferView": 1,
            "byteOffset": 0,
            "componentType": 5126,
            "count": 42,
            "max": [
                0.934436023235321,
                1.0,
                0.8944270014762878
            ],
            "min": [
                -0.934436023235321,
                -1.0,
                -0.8944270014762878
            ],
            "type": "VEC3"
        },
        {
            "bufferView": 1,
            "byteOffset": 504,
            "componentType": 5126,
            "count": 42,
            "max": [
                0.009999999776482582,
                0.009999999776482582,
                0.009999999776482582
            ],
            "min": [
                -0.009999999776482582,
                -0.01623857021331787,
                -0.009999999776482582
            ],
            "type": "VEC3"
        },
        {
            "bufferView": 0,
            "byteOffset": 228,
            "componentType": 5123,
            "count": 36,
            "max": [
                23
            ],
            "min": [
                0
            ],
            "type": "SCALAR"
        },
        {
            "bufferView": 1,
            "byteOffset": 1008,
            "componentType": 5126,
            "count": 24,
            "max": [
                1.0,
                1.0,
                1.0
            ],
            "min": [
                -1.0,
                -1.0,
                -1.0
            ],
            "type": "VEC3"
        },
        {
            "bufferView": 1,
            "byteOffset": 1296,
            "componentType": 5126,
            "count": 24,
            "max": [
                0.004999999888241291,
                0.004999999888241291,
                0.004999999888241291
            ],
            "min": [
                -0.004999999888241291,
                -0.004999999888241291,
                -0.004999999888241291
            ],
            "type": "VEC3"
        },
        {
            "bufferView": 0,
            "byteOffset": 300,
            "componentType": 5123,
            "count": 36,
            "max": [
                23
            ],
            "min": [
                0
            ],
            "type": "SCALAR"
        },
        {
            "bufferView": 1,
            "byteOffset": 1584,
            "componentType": 5126,
            "count": 24,
            "max": [
                1.0,
                1.0,
                1.0
            ],
            "min": [
                -1.0,
                -1.0,
                -1.0
            ],
            "type": "VEC3"
        },
        {
            "bufferView": 1,
            "byteOffset": 1872,
            "componentType": 5126,
            "count": 24,
            "max": [
                0.004999999888241291,
                0.004999999888241291,
                0.004999999888241291
            ],
            "min": [
                -0.004999999888241291,
                -0.004999999888241291,
                -0.004999999888241291
            ],
            "type": "VEC3"
        }
    ],
    "materials": [
        {
            "pbrMetallicRoughness": {
                "baseColorFactor": [
                    0.5,
                    0.5,
                    0.5,
                    0.0
                ],
                "metallicFactor": 0.0
            },
            "emissiveFactor": [
                0.0,
                0.0,
                0.0
            ],
            "alphaMode": "BLEND",
            "name": "Default_Material"
        },
        {
            "pbrMetallicRoughness": {
                "baseColorFactor": [
                    0.5,
                    0.5,
                    0.5,
                    0.0
                ],
                "metallicFactor": 0.0
            },
            "emissiveFactor": [
                0.0,
                0.0,
                0.0
            ],
            "alphaMode": "BLEND",
            "name": "Default_Material"
        },
        {
            "pbrMetallicRoughness": {
                "baseColorFactor": [
                    0.5,
                    0.5,
                    0.5,
                    0.0
                ],
                "metallicFactor": 0.0
            },
            "emissiveFactor": [
                0.0,
                0.0,
                0.0
            ],
            "alphaMode": "BLEND",
            "name": "Default_Material"
        }
    ],
    "bufferViews": [
        {
            "buffer": 0,
            "byteOffset": 2160,
            "byteLength": 372,
            "target": 34963
        },
        {
            "buffer": 0,
            "byteOffset": 0,
            "byteLength": 2160,
            "byteStride": 12,
            "target": 34962
        }
    ],
    "buffers": [
        {
            "byteLength": 2532,
            "uri": "data:application/octet-stream;base64,"
        }
    ]
}
